<svg width="20" height="20" viewBox="0 0 20 20" fill="none" xmlns="http://www.w3.org/2000/svg">
<g clip-path="url(#clip0)">
<path d="M13.4333 1.60748L4.3575 6.25415L0.75 4.47915L9.66582 0.0766467C9.86582 -0.0250199 10.1058 -0.0250199 10.3158 0.0766467L13.4333 1.60748Z" fill="#0E3143"/>
<path d="M19.2399 4.47918L10.005 9.05418L6.54663 7.35001L6.04663 7.09585L15.1325 2.45001L15.6325 2.70335L19.2399 4.47918Z" fill="#0E3143"/>
<path d="M9.26501 10.3725L9.25501 20L0.41 15.3842C0.16 15.2525 0 14.9883 0 14.7042V5.79749L3.74834 7.64415V10.8908C3.74834 11.3067 4.08834 11.6517 4.49834 11.6517C4.90834 11.6517 5.24834 11.3067 5.24834 10.8908V8.39499L5.74834 8.63832L9.26501 10.3725Z" fill="#0E3143"/>
<path d="M19.9899 5.8075L10.7649 10.3625L10.7549 19.99L19.9999 15.1625L19.9899 5.8075Z" fill="#0E3143"/>
</g>
<defs>
<clipPath id="clip0">
<rect width="20" height="20" fill="white"/>
</clipPath>
</defs>
</svg>
